<?xml version="1.0" encoding="utf-8"?>
<!-- Generator: Adobe Illustrator 22.0.0, SVG Export Plug-In . SVG Version: 6.00 Build 0)  -->
<svg version="1.1" id="Layer_1" xmlns="http://www.w3.org/2000/svg" xmlns:xlink="http://www.w3.org/1999/xlink" x="0px" y="0px"
	 viewBox="0 0 432 288" style="enable-background:new 0 0 432 288;" xml:space="preserve">
<style type="text/css">
	.st0{fill:#FFFFFF;stroke:#FFFFFF;stroke-miterlimit:10;}
	.st1{fill:#FFFFFF;}
	.st2{fill:#262626;}
	.st3{fill:none;stroke:#262626;stroke-width:0.8;stroke-linejoin:round;stroke-miterlimit:10;}
	.st4{font-family:'DINAlternate-Bold';}
	.st5{font-size:10px;}
	.st6{opacity:0.25;fill:#4C72B0;}
	.st7{opacity:0.25;fill:none;stroke:#FFFFFF;stroke-linejoin:round;stroke-miterlimit:10;}
	.st8{fill:none;}
	.st9{opacity:0.25;fill:#55A868;}
	.st10{fill:none;stroke:#4C72B0;stroke-width:1.5;stroke-linecap:round;stroke-linejoin:round;stroke-miterlimit:10;}
	.st11{fill:none;stroke:#55A868;stroke-width:1.5;stroke-linecap:round;stroke-linejoin:round;stroke-miterlimit:10;}
	.st12{opacity:0.8;fill:#FFFFFF;}
	.st13{opacity:0.8;fill:none;stroke:#CCCCCC;stroke-miterlimit:10;}
</style>
<rect x="326.4" y="17.8" class="st0" width="93.8" height="29.5"/>
<rect x="-1" class="st1" width="432" height="288"/>
<line class="st2" x1="81.5" y1="261.2" x2="81.5" y2="264.7"/>
<line class="st3" x1="81.5" y1="261.2" x2="81.5" y2="264.7"/>
<text transform="matrix(1 0 0 1 74.5527 275.3564)" class="st2 st4 st5">0.2</text>
<line class="st2" x1="151.5" y1="261.2" x2="151.5" y2="264.7"/>
<line class="st3" x1="151.5" y1="261.2" x2="151.5" y2="264.7"/>
<text transform="matrix(1 0 0 1 144.5923 275.3564)" class="st2 st4 st5">0.4</text>
<line class="st2" x1="221.6" y1="261.2" x2="221.6" y2="264.7"/>
<line class="st3" x1="221.6" y1="261.2" x2="221.6" y2="264.7"/>
<text transform="matrix(1 0 0 1 214.6323 275.3564)" class="st2 st4 st5">0.6</text>
<line class="st2" x1="291.6" y1="261.2" x2="291.6" y2="264.7"/>
<line class="st3" x1="291.6" y1="261.2" x2="291.6" y2="264.7"/>
<text transform="matrix(1 0 0 1 284.6719 275.3564)" class="st2 st4 st5">0.8</text>
<line class="st2" x1="361.7" y1="261.2" x2="361.7" y2="264.7"/>
<line class="st3" x1="361.7" y1="261.2" x2="361.7" y2="264.7"/>
<text transform="matrix(1 0 0 1 354.7119 275.3564)" class="st2 st4 st5">1.0</text>
<line class="st2" x1="30.7" y1="261.2" x2="27.2" y2="261.2"/>
<line class="st3" x1="30.7" y1="261.2" x2="27.2" y2="261.2"/>
<text transform="matrix(1 0 0 1 9.7686 264.7783)" class="st2 st4 st5">0.0</text>
<line class="st2" x1="30.7" y1="222.5" x2="27.2" y2="222.5"/>
<line class="st3" x1="30.7" y1="222.5" x2="27.2" y2="222.5"/>
<text transform="matrix(1 0 0 1 9.7686 226.0312)" class="st2 st4 st5">0.5</text>
<line class="st2" x1="30.7" y1="183.7" x2="27.2" y2="183.7"/>
<line class="st3" x1="30.7" y1="183.7" x2="27.2" y2="183.7"/>
<text transform="matrix(1 0 0 1 9.7686 187.2842)" class="st2 st4 st5">1.0</text>
<line class="st2" x1="30.7" y1="145" x2="27.2" y2="145"/>
<line class="st3" x1="30.7" y1="145" x2="27.2" y2="145"/>
<text transform="matrix(1 0 0 1 9.7686 148.5371)" class="st2 st4 st5">1.5</text>
<line class="st2" x1="30.7" y1="106.2" x2="27.2" y2="106.2"/>
<line class="st3" x1="30.7" y1="106.2" x2="27.2" y2="106.2"/>
<text transform="matrix(1 0 0 1 9.7686 109.79)" class="st2 st4 st5">2.0</text>
<line class="st2" x1="30.7" y1="67.5" x2="27.2" y2="67.5"/>
<line class="st3" x1="30.7" y1="67.5" x2="27.2" y2="67.5"/>
<text transform="matrix(1 0 0 1 9.7686 71.043)" class="st2 st4 st5">2.5</text>
<line class="st2" x1="30.7" y1="28.7" x2="27.2" y2="28.7"/>
<line class="st3" x1="30.7" y1="28.7" x2="27.2" y2="28.7"/>
<text transform="matrix(1 0 0 1 9.7686 32.2959)" class="st2 st4 st5">3.0</text>
<g>
	<polygon class="st6" points="48.4,261.1 48.4,261.2 51.2,261.2 54,261.2 56.7,261.2 59.5,261.2 62.3,261.2 65.1,261.2 67.9,261.2 
		70.7,261.2 73.5,261.2 76.3,261.2 79.1,261.2 81.8,261.2 84.6,261.2 87.4,261.2 90.2,261.2 93,261.2 95.8,261.2 98.6,261.2 
		101.4,261.2 104.1,261.2 106.9,261.2 109.7,261.2 112.5,261.2 115.3,261.2 118.1,261.2 120.9,261.2 123.7,261.2 126.5,261.2 
		129.2,261.2 132,261.2 134.8,261.2 137.6,261.2 140.4,261.2 143.2,261.2 146,261.2 148.8,261.2 151.5,261.2 154.3,261.2 
		157.1,261.2 159.9,261.2 162.7,261.2 165.5,261.2 168.3,261.2 171.1,261.2 173.9,261.2 176.6,261.2 179.4,261.2 182.2,261.2 
		185,261.2 187.8,261.2 190.6,261.2 193.4,261.2 196.2,261.2 198.9,261.2 201.7,261.2 204.5,261.2 207.3,261.2 210.1,261.2 
		212.9,261.2 215.7,261.2 218.5,261.2 221.3,261.2 224,261.2 226.8,261.2 229.6,261.2 232.4,261.2 235.2,261.2 238,261.2 
		240.8,261.2 243.6,261.2 246.3,261.2 249.1,261.2 251.9,261.2 254.7,261.2 257.5,261.2 260.3,261.2 263.1,261.2 265.9,261.2 
		268.7,261.2 271.4,261.2 274.2,261.2 277,261.2 279.8,261.2 282.6,261.2 285.4,261.2 288.2,261.2 291,261.2 293.8,261.2 
		296.5,261.2 299.3,261.2 302.1,261.2 304.9,261.2 307.7,261.2 310.5,261.2 313.3,261.2 316.1,261.2 318.8,261.2 321.6,261.2 
		324.4,261.2 327.2,261.2 330,261.2 332.8,261.2 335.6,261.2 338.4,261.2 341.2,261.2 343.9,261.2 346.7,261.2 349.5,261.2 
		352.3,261.2 355.1,261.2 357.9,261.2 360.7,261.2 363.5,261.2 366.2,261.2 369,261.2 371.8,261.2 374.6,261.2 377.4,261.2 
		380.2,261.2 383,261.2 385.8,261.2 388.6,261.2 391.3,261.2 394.1,261.2 396.9,261.2 399.7,261.2 402.5,261.2 402.5,261 399.7,261 
		396.9,260.9 394.1,260.8 391.3,260.6 388.6,260.3 385.8,259.8 383,259.2 380.2,258.4 377.4,257.3 374.6,255.8 371.8,253.9 
		369,251.5 366.2,248.6 363.5,245 360.7,240.8 357.9,235.9 355.1,230.3 352.3,224.1 349.5,217.3 346.7,210.1 343.9,202.6 
		341.2,194.9 338.4,187.1 335.6,179.5 332.8,172 330,164.7 327.2,157.6 324.4,150.7 321.6,143.9 318.8,137 316.1,130 313.3,122.8 
		310.5,115.2 307.7,107.2 304.9,98.8 302.1,90.2 299.3,81.3 296.5,72.4 293.8,63.6 291,55.3 288.2,47.5 285.4,40.5 282.6,34.4 
		279.8,29.6 277,26 274.2,23.7 271.4,22.7 268.7,23.1 265.9,24.7 263.1,27.4 260.3,31 257.5,35.5 254.7,40.5 251.9,45.9 249.1,51.5 
		246.3,57.2 243.6,62.9 240.8,68.5 238,74 235.2,79.4 232.4,84.9 229.6,90.5 226.8,96.5 224,102.8 221.3,109.6 218.5,117 215.7,125 
		212.9,133.5 210.1,142.5 207.3,151.8 204.5,161.3 201.7,170.7 198.9,180 196.2,189 193.4,197.5 190.6,205.5 187.8,212.9 185,219.7 
		182.2,225.8 179.4,231.3 176.6,236.1 173.9,240.2 171.1,243.8 168.3,246.8 165.5,249.2 162.7,251.1 159.9,252.5 157.1,253.4 
		154.3,254 151.5,254.2 148.8,254.1 146,253.8 143.2,253.3 140.4,252.7 137.6,252 134.8,251.3 132,250.6 129.2,249.8 126.5,249.2 
		123.7,248.6 120.9,248 118.1,247.6 115.3,247.4 112.5,247.3 109.7,247.4 106.9,247.7 104.1,248.1 101.4,248.8 98.6,249.7 
		95.8,250.7 93,251.8 90.2,252.9 87.4,254.1 84.6,255.2 81.8,256.2 79.1,257.2 76.3,258 73.5,258.8 70.7,259.4 67.9,259.8 
		65.1,260.2 62.3,260.5 59.5,260.7 56.7,260.9 54,261 51.2,261 	"/>
	<polygon class="st7" points="48.4,261.1 48.4,261.2 51.2,261.2 54,261.2 56.7,261.2 59.5,261.2 62.3,261.2 65.1,261.2 67.9,261.2 
		70.7,261.2 73.5,261.2 76.3,261.2 79.1,261.2 81.8,261.2 84.6,261.2 87.4,261.2 90.2,261.2 93,261.2 95.8,261.2 98.6,261.2 
		101.4,261.2 104.1,261.2 106.9,261.2 109.7,261.2 112.5,261.2 115.3,261.2 118.1,261.2 120.9,261.2 123.7,261.2 126.5,261.2 
		129.2,261.2 132,261.2 134.8,261.2 137.6,261.2 140.4,261.2 143.2,261.2 146,261.2 148.8,261.2 151.5,261.2 154.3,261.2 
		157.1,261.2 159.9,261.2 162.7,261.2 165.5,261.2 168.3,261.2 171.1,261.2 173.9,261.2 176.6,261.2 179.4,261.2 182.2,261.2 
		185,261.2 187.8,261.2 190.6,261.2 193.4,261.2 196.2,261.2 198.9,261.2 201.7,261.2 204.5,261.2 207.3,261.2 210.1,261.2 
		212.9,261.2 215.7,261.2 218.5,261.2 221.3,261.2 224,261.2 226.8,261.2 229.6,261.2 232.4,261.2 235.2,261.2 238,261.2 
		240.8,261.2 243.6,261.2 246.3,261.2 249.1,261.2 251.9,261.2 254.7,261.2 257.5,261.2 260.3,261.2 263.1,261.2 265.9,261.2 
		268.7,261.2 271.4,261.2 274.2,261.2 277,261.2 279.8,261.2 282.6,261.2 285.4,261.2 288.2,261.2 291,261.2 293.8,261.2 
		296.5,261.2 299.3,261.2 302.1,261.2 304.9,261.2 307.7,261.2 310.5,261.2 313.3,261.2 316.1,261.2 318.8,261.2 321.6,261.2 
		324.4,261.2 327.2,261.2 330,261.2 332.8,261.2 335.6,261.2 338.4,261.2 341.2,261.2 343.9,261.2 346.7,261.2 349.5,261.2 
		352.3,261.2 355.1,261.2 357.9,261.2 360.7,261.2 363.5,261.2 366.2,261.2 369,261.2 371.8,261.2 374.6,261.2 377.4,261.2 
		380.2,261.2 383,261.2 385.8,261.2 388.6,261.2 391.3,261.2 394.1,261.2 396.9,261.2 399.7,261.2 402.5,261.2 402.5,261 399.7,261 
		396.9,260.9 394.1,260.8 391.3,260.6 388.6,260.3 385.8,259.8 383,259.2 380.2,258.4 377.4,257.3 374.6,255.8 371.8,253.9 
		369,251.5 366.2,248.6 363.5,245 360.7,240.8 357.9,235.9 355.1,230.3 352.3,224.1 349.5,217.3 346.7,210.1 343.9,202.6 
		341.2,194.9 338.4,187.1 335.6,179.5 332.8,172 330,164.7 327.2,157.6 324.4,150.7 321.6,143.9 318.8,137 316.1,130 313.3,122.8 
		310.5,115.2 307.7,107.2 304.9,98.8 302.1,90.2 299.3,81.3 296.5,72.4 293.8,63.6 291,55.3 288.2,47.5 285.4,40.5 282.6,34.4 
		279.8,29.6 277,26 274.2,23.7 271.4,22.7 268.7,23.1 265.9,24.7 263.1,27.4 260.3,31 257.5,35.5 254.7,40.5 251.9,45.9 249.1,51.5 
		246.3,57.2 243.6,62.9 240.8,68.5 238,74 235.2,79.4 232.4,84.9 229.6,90.5 226.8,96.5 224,102.8 221.3,109.6 218.5,117 215.7,125 
		212.9,133.5 210.1,142.5 207.3,151.8 204.5,161.3 201.7,170.7 198.9,180 196.2,189 193.4,197.5 190.6,205.5 187.8,212.9 185,219.7 
		182.2,225.8 179.4,231.3 176.6,236.1 173.9,240.2 171.1,243.8 168.3,246.8 165.5,249.2 162.7,251.1 159.9,252.5 157.1,253.4 
		154.3,254 151.5,254.2 148.8,254.1 146,253.8 143.2,253.3 140.4,252.7 137.6,252 134.8,251.3 132,250.6 129.2,249.8 126.5,249.2 
		123.7,248.6 120.9,248 118.1,247.6 115.3,247.4 112.5,247.3 109.7,247.4 106.9,247.7 104.1,248.1 101.4,248.8 98.6,249.7 
		95.8,250.7 93,251.8 90.2,252.9 87.4,254.1 84.6,255.2 81.8,256.2 79.1,257.2 76.3,258 73.5,258.8 70.7,259.4 67.9,259.8 
		65.1,260.2 62.3,260.5 59.5,260.7 56.7,260.9 54,261 51.2,261 	"/>
</g>
<rect x="30.7" y="10.8" class="st8" width="389.5" height="250.4"/>
<g>
	<polygon class="st9" points="50.9,261 50.9,261.2 53.6,261.2 56.3,261.2 59,261.2 61.7,261.2 64.4,261.2 67.1,261.2 69.8,261.2 
		72.5,261.2 75.2,261.2 77.9,261.2 80.6,261.2 83.3,261.2 86,261.2 88.7,261.2 91.4,261.2 94.1,261.2 96.8,261.2 99.5,261.2 
		102.2,261.2 104.9,261.2 107.6,261.2 110.3,261.2 113,261.2 115.7,261.2 118.4,261.2 121.1,261.2 123.8,261.2 126.5,261.2 
		129.2,261.2 131.9,261.2 134.6,261.2 137.3,261.2 140,261.2 142.7,261.2 145.4,261.2 148.2,261.2 150.9,261.2 153.6,261.2 
		156.3,261.2 159,261.2 161.7,261.2 164.4,261.2 167.1,261.2 169.8,261.2 172.5,261.2 175.2,261.2 177.9,261.2 180.6,261.2 
		183.3,261.2 186,261.2 188.7,261.2 191.4,261.2 194.1,261.2 196.8,261.2 199.5,261.2 202.2,261.2 204.9,261.2 207.6,261.2 
		210.3,261.2 213,261.2 215.7,261.2 218.4,261.2 221.1,261.2 223.8,261.2 226.5,261.2 229.2,261.2 231.9,261.2 234.6,261.2 
		237.3,261.2 240,261.2 242.7,261.2 245.4,261.2 248.1,261.2 250.8,261.2 253.5,261.2 256.2,261.2 258.9,261.2 261.6,261.2 
		264.3,261.2 267,261.2 269.7,261.2 272.5,261.2 275.2,261.2 277.9,261.2 280.6,261.2 283.3,261.2 286,261.2 288.7,261.2 
		291.4,261.2 294.1,261.2 296.8,261.2 299.5,261.2 302.2,261.2 304.9,261.2 307.6,261.2 310.3,261.2 313,261.2 315.7,261.2 
		318.4,261.2 321.1,261.2 323.8,261.2 326.5,261.2 329.2,261.2 331.9,261.2 334.6,261.2 337.3,261.2 340,261.2 342.7,261.2 
		345.4,261.2 348.1,261.2 350.8,261.2 353.5,261.2 356.2,261.2 358.9,261.2 361.6,261.2 364.3,261.2 367,261.2 369.7,261.2 
		372.4,261.2 375.1,261.2 377.8,261.2 380.5,261.2 383.2,261.2 385.9,261.2 388.6,261.2 391.3,261.2 394.1,261.2 394.1,261 
		391.3,260.9 388.6,260.9 385.9,260.7 383.2,260.6 380.5,260.3 377.8,260 375.1,259.5 372.4,258.9 369.7,258.2 367,257.3 
		364.3,256.1 361.6,254.6 358.9,252.9 356.2,250.8 353.5,248.3 350.8,245.4 348.1,242 345.4,238.2 342.7,233.9 340,229.1 
		337.3,223.8 334.6,217.9 331.9,211.6 329.2,204.8 326.5,197.5 323.8,189.7 321.1,181.6 318.4,173.1 315.7,164.3 313,155.4 
		310.3,146.3 307.6,137.2 304.9,128.2 302.2,119.4 299.5,110.9 296.8,102.9 294.1,95.4 291.4,88.6 288.7,82.5 286,77.2 283.3,72.7 
		280.6,69 277.9,66.1 275.2,64 272.5,62.7 269.7,62 267,61.8 264.3,62.2 261.6,63.1 258.9,64.4 256.2,66 253.5,67.8 250.8,69.9 
		248.1,72.3 245.4,74.8 242.7,77.4 240,80.2 237.3,83.1 234.6,86.2 231.9,89.3 229.2,92.6 226.5,95.9 223.8,99.4 221.1,103 
		218.4,106.8 215.7,110.7 213,114.9 210.3,119.2 207.6,123.8 204.9,128.7 202.2,133.8 199.5,139.1 196.8,144.5 194.1,150.1 
		191.4,155.7 188.7,161.3 186,166.7 183.3,172 180.6,177 177.9,181.7 175.2,186 172.5,190 169.8,193.5 167.1,196.8 164.4,199.6 
		161.7,202.2 159,204.5 156.3,206.6 153.6,208.6 150.9,210.5 148.2,212.2 145.4,214 142.7,215.7 140,217.4 137.3,219.1 134.6,220.9 
		131.9,222.7 129.2,224.5 126.5,226.4 123.8,228.4 121.1,230.4 118.4,232.4 115.7,234.5 113,236.6 110.3,238.7 107.6,240.8 
		104.9,242.9 102.2,244.9 99.5,246.9 96.8,248.8 94.1,250.5 91.4,252.1 88.7,253.6 86,254.9 83.3,256.1 80.6,257.1 77.9,257.9 
		75.2,258.6 72.5,259.2 69.8,259.7 67.1,260.1 64.4,260.3 61.7,260.6 59,260.7 56.3,260.8 53.6,260.9 	"/>
	<polygon class="st7" points="50.9,261 50.9,261.2 53.6,261.2 56.3,261.2 59,261.2 61.7,261.2 64.4,261.2 67.1,261.2 69.8,261.2 
		72.5,261.2 75.2,261.2 77.9,261.2 80.6,261.2 83.3,261.2 86,261.2 88.7,261.2 91.4,261.2 94.1,261.2 96.8,261.2 99.5,261.2 
		102.2,261.2 104.9,261.2 107.6,261.2 110.3,261.2 113,261.2 115.7,261.2 118.4,261.2 121.1,261.2 123.8,261.2 126.5,261.2 
		129.2,261.2 131.9,261.2 134.6,261.2 137.3,261.2 140,261.2 142.7,261.2 145.4,261.2 148.2,261.2 150.9,261.2 153.6,261.2 
		156.3,261.2 159,261.2 161.7,261.2 164.4,261.2 167.1,261.2 169.8,261.2 172.5,261.2 175.2,261.2 177.9,261.2 180.6,261.2 
		183.3,261.2 186,261.2 188.7,261.2 191.4,261.2 194.1,261.2 196.8,261.2 199.5,261.2 202.2,261.2 204.9,261.2 207.6,261.2 
		210.3,261.2 213,261.2 215.7,261.2 218.4,261.2 221.1,261.2 223.8,261.2 226.5,261.2 229.2,261.2 231.9,261.2 234.6,261.2 
		237.3,261.2 240,261.2 242.7,261.2 245.4,261.2 248.1,261.2 250.8,261.2 253.5,261.2 256.2,261.2 258.9,261.2 261.6,261.2 
		264.3,261.2 267,261.2 269.7,261.2 272.5,261.2 275.2,261.2 277.9,261.2 280.6,261.2 283.3,261.2 286,261.2 288.7,261.2 
		291.4,261.2 294.1,261.2 296.8,261.2 299.5,261.2 302.2,261.2 304.9,261.2 307.6,261.2 310.3,261.2 313,261.2 315.7,261.2 
		318.4,261.2 321.1,261.2 323.8,261.2 326.5,261.2 329.2,261.2 331.9,261.2 334.6,261.2 337.3,261.2 340,261.2 342.7,261.2 
		345.4,261.2 348.1,261.2 350.8,261.2 353.5,261.2 356.2,261.2 358.9,261.2 361.6,261.2 364.3,261.2 367,261.2 369.7,261.2 
		372.4,261.2 375.1,261.2 377.8,261.2 380.5,261.2 383.2,261.2 385.9,261.2 388.6,261.2 391.3,261.2 394.1,261.2 394.1,261 
		391.3,260.9 388.6,260.9 385.9,260.7 383.2,260.6 380.5,260.3 377.8,260 375.1,259.5 372.4,258.9 369.7,258.2 367,257.3 
		364.3,256.1 361.6,254.6 358.9,252.9 356.2,250.8 353.5,248.3 350.8,245.4 348.1,242 345.4,238.2 342.7,233.9 340,229.1 
		337.3,223.8 334.6,217.9 331.9,211.6 329.2,204.8 326.5,197.5 323.8,189.7 321.1,181.6 318.4,173.1 315.7,164.3 313,155.4 
		310.3,146.3 307.6,137.2 304.9,128.2 302.2,119.4 299.5,110.9 296.8,102.9 294.1,95.4 291.4,88.6 288.7,82.5 286,77.2 283.3,72.7 
		280.6,69 277.9,66.1 275.2,64 272.5,62.7 269.7,62 267,61.8 264.3,62.2 261.6,63.1 258.9,64.4 256.2,66 253.5,67.8 250.8,69.9 
		248.1,72.3 245.4,74.8 242.7,77.4 240,80.2 237.3,83.1 234.6,86.2 231.9,89.3 229.2,92.6 226.5,95.9 223.8,99.4 221.1,103 
		218.4,106.8 215.7,110.7 213,114.9 210.3,119.2 207.6,123.8 204.9,128.7 202.2,133.8 199.5,139.1 196.8,144.5 194.1,150.1 
		191.4,155.7 188.7,161.3 186,166.7 183.3,172 180.6,177 177.9,181.7 175.2,186 172.5,190 169.8,193.5 167.1,196.8 164.4,199.6 
		161.7,202.2 159,204.5 156.3,206.6 153.6,208.6 150.9,210.5 148.2,212.2 145.4,214 142.7,215.7 140,217.4 137.3,219.1 134.6,220.9 
		131.9,222.7 129.2,224.5 126.5,226.4 123.8,228.4 121.1,230.4 118.4,232.4 115.7,234.5 113,236.6 110.3,238.7 107.6,240.8 
		104.9,242.9 102.2,244.9 99.5,246.9 96.8,248.8 94.1,250.5 91.4,252.1 88.7,253.6 86,254.9 83.3,256.1 80.6,257.1 77.9,257.9 
		75.2,258.6 72.5,259.2 69.8,259.7 67.1,260.1 64.4,260.3 61.7,260.6 59,260.7 56.3,260.8 53.6,260.9 	"/>
</g>
<rect x="30.7" y="10.8" class="st8" width="389.5" height="250.4"/>
<polyline class="st10" points="48.4,261.1 56.7,260.9 62.3,260.5 67.9,259.8 70.7,259.4 73.5,258.8 76.3,258 81.8,256.2 87.4,254.1 
	95.8,250.7 98.6,249.7 101.4,248.8 104.1,248.1 106.9,247.7 109.7,247.4 112.5,247.3 115.3,247.4 118.1,247.6 120.9,248 
	126.5,249.2 134.8,251.3 140.4,252.7 143.2,253.3 146,253.8 148.8,254.1 151.5,254.2 154.3,254 157.1,253.4 159.9,252.5 
	162.7,251.1 165.5,249.2 168.3,246.8 171.1,243.8 173.9,240.2 176.6,236.1 179.4,231.3 182.2,225.8 185,219.7 187.8,212.9 
	190.6,205.5 193.4,197.5 196.2,189 201.7,170.7 210.1,142.5 212.9,133.5 215.7,125 218.5,117 221.3,109.6 224,102.8 226.8,96.5 
	229.6,90.5 235.2,79.4 243.6,62.9 251.9,45.9 254.7,40.5 257.5,35.5 260.3,31 263.1,27.4 265.9,24.7 268.7,23.1 271.4,22.7 
	274.2,23.7 277,26 279.8,29.6 282.6,34.4 285.4,40.5 288.2,47.5 291,55.3 293.8,63.6 307.7,107.2 310.5,115.2 313.3,122.8 
	318.8,137 330,164.7 335.6,179.5 346.7,210.1 349.5,217.3 352.3,224.1 355.1,230.3 357.9,235.9 360.7,240.8 363.5,245 366.2,248.6 
	369,251.5 371.8,253.9 374.6,255.8 377.4,257.3 380.2,258.4 383,259.2 385.8,259.8 388.6,260.3 394.1,260.8 399.7,261 402.5,261 "/>
<rect x="30.7" y="10.8" class="st8" width="389.5" height="250.4"/>
<polyline class="st11" points="50.9,261 56.3,260.8 61.7,260.6 67.1,260.1 72.5,259.2 75.2,258.6 77.9,257.9 80.6,257.1 83.3,256.1 
	86,254.9 88.7,253.6 91.4,252.1 94.1,250.5 99.5,246.9 104.9,242.9 123.8,228.4 129.2,224.5 137.3,219.1 153.6,208.6 156.3,206.6 
	159,204.5 161.7,202.2 164.4,199.6 167.1,196.8 169.8,193.5 172.5,190 175.2,186 177.9,181.7 180.6,177 183.3,172 188.7,161.3 
	199.5,139.1 204.9,128.7 207.6,123.8 210.3,119.2 213,114.9 215.7,110.7 221.1,103 226.5,95.9 231.9,89.3 237.3,83.1 242.7,77.4 
	245.4,74.8 248.1,72.3 250.8,69.9 253.5,67.8 256.2,66 258.9,64.4 261.6,63.1 264.3,62.2 267,61.8 269.7,62 272.5,62.7 275.2,64 
	277.9,66.1 280.6,69 283.3,72.7 286,77.2 288.7,82.5 291.4,88.6 294.1,95.4 296.8,102.9 299.5,110.9 304.9,128.2 318.4,173.1 
	323.8,189.7 326.5,197.5 329.2,204.8 331.9,211.6 334.6,217.9 337.3,223.8 340,229.1 342.7,233.9 345.4,238.2 348.1,242 
	350.8,245.4 353.5,248.3 356.2,250.8 358.9,252.9 361.6,254.6 364.3,256.1 367,257.3 369.7,258.2 372.4,258.9 375.1,259.5 
	380.5,260.3 385.9,260.7 391.3,260.9 394.1,261 "/>
<rect x="30.7" y="10.8" class="st8" width="389.5" height="250.4"/>
<g>
	<path class="st12" d="M328.4,47.3h84.8c1.3,0,2-0.7,2-2V17.8c0-1.3-0.7-2-2-2h-84.8c-1.3,0-2,0.7-2,2v27.5
		C326.4,46.7,327.1,47.3,328.4,47.3z"/>
	<path class="st13" d="M328.4,47.3h84.8c1.3,0,2-0.7,2-2V17.8c0-1.3-0.7-2-2-2h-84.8c-1.3,0-2,0.7-2,2v27.5
		C326.4,46.7,327.1,47.3,328.4,47.3z"/>
</g>
<line class="st10" x1="330.4" y1="23.5" x2="350.4" y2="23.5"/>
<text transform="matrix(1 0 0 1 358.3877 26.9561)" class="st2 st4 st5">danceability</text>
<line class="st11" x1="330.4" y1="37.7" x2="350.4" y2="37.7"/>
<text transform="matrix(1 0 0 1 358.3877 41.2217)" class="st2 st4 st5">energy</text>
<rect x="-1" class="st8" width="432" height="288"/>
<rect x="27.2" y="22.7" class="st0" width="3.5" height="242"/>
<rect x="78.7" y="261.2" class="st0" width="302" height="3.6"/>
</svg>
