<?xml version="1.0" encoding="utf-8"?>
<!-- Generator: Adobe Illustrator 22.0.0, SVG Export Plug-In . SVG Version: 6.00 Build 0)  -->
<svg version="1.1" id="Layer_1" xmlns="http://www.w3.org/2000/svg" xmlns:xlink="http://www.w3.org/1999/xlink" x="0px" y="0px"
	 viewBox="0 0 432 288" style="enable-background:new 0 0 432 288;" xml:space="preserve">
<style type="text/css">
	.st0{fill:#FFFFFF;}
	.st1{fill:#262626;}
	.st2{fill:none;stroke:#262626;stroke-width:0.8;stroke-linejoin:round;stroke-miterlimit:10;}
	.st3{font-family:'DINAlternate-Bold';}
	.st4{font-size:10px;}
	.st5{opacity:0.25;fill:#4C72B0;}
	.st6{opacity:0.25;fill:none;stroke:#FFFFFF;stroke-linejoin:round;stroke-miterlimit:10;}
	.st7{fill:none;}
	.st8{opacity:0.25;fill:#55A868;}
	.st9{fill:none;stroke:#4C72B0;stroke-width:1.5;stroke-linecap:round;stroke-linejoin:round;stroke-miterlimit:10;}
	.st10{fill:none;stroke:#55A868;stroke-width:1.5;stroke-linecap:round;stroke-linejoin:round;stroke-miterlimit:10;}
	.st11{opacity:0.8;fill:#FFFFFF;}
	.st12{opacity:0.8;fill:none;stroke:#CCCCCC;stroke-miterlimit:10;}
	.st13{fill:#FFFFFF;stroke:#FFFFFF;stroke-miterlimit:10;}
</style>
<rect class="st0" width="432" height="288"/>
<line class="st1" x1="44.5" y1="261.2" x2="44.5" y2="264.7"/>
<line class="st2" x1="44.5" y1="261.2" x2="44.5" y2="264.7"/>
<text transform="matrix(1 0 0 1 34.6382 275.3564)" class="st1 st3 st4">−0.2</text>
<line class="st1" x1="96.1" y1="261.2" x2="96.1" y2="264.7"/>
<line class="st2" x1="96.1" y1="261.2" x2="96.1" y2="264.7"/>
<text transform="matrix(1 0 0 1 89.1479 275.3564)" class="st1 st3 st4">0.0</text>
<line class="st1" x1="147.7" y1="261.2" x2="147.7" y2="264.7"/>
<line class="st2" x1="147.7" y1="261.2" x2="147.7" y2="264.7"/>
<text transform="matrix(1 0 0 1 140.7358 275.3564)" class="st1 st3 st4">0.2</text>
<line class="st1" x1="199.3" y1="261.2" x2="199.3" y2="264.7"/>
<line class="st2" x1="199.3" y1="261.2" x2="199.3" y2="264.7"/>
<text transform="matrix(1 0 0 1 192.3232 275.3564)" class="st1 st3 st4">0.4</text>
<line class="st1" x1="250.9" y1="261.2" x2="250.9" y2="264.7"/>
<line class="st2" x1="250.9" y1="261.2" x2="250.9" y2="264.7"/>
<text transform="matrix(1 0 0 1 243.9111 275.3564)" class="st1 st3 st4">0.6</text>
<line class="st1" x1="302.5" y1="261.2" x2="302.5" y2="264.7"/>
<line class="st2" x1="302.5" y1="261.2" x2="302.5" y2="264.7"/>
<text transform="matrix(1 0 0 1 295.499 275.3564)" class="st1 st3 st4">0.8</text>
<line class="st1" x1="354" y1="261.2" x2="354" y2="264.7"/>
<line class="st2" x1="354" y1="261.2" x2="354" y2="264.7"/>
<text transform="matrix(1 0 0 1 347.0869 275.3564)" class="st1 st3 st4">1.0</text>
<line class="st1" x1="405.6" y1="261.2" x2="405.6" y2="264.7"/>
<line class="st2" x1="405.6" y1="261.2" x2="405.6" y2="264.7"/>
<text transform="matrix(1 0 0 1 398.6748 275.3564)" class="st1 st3 st4">1.2</text>
<line class="st1" x1="31.7" y1="261.2" x2="28.2" y2="261.2"/>
<line class="st2" x1="31.7" y1="261.2" x2="28.2" y2="261.2"/>
<text transform="matrix(1 0 0 1 10.7686 264.7783)" class="st1 st3 st4">0.0</text>
<line class="st1" x1="31.7" y1="214.9" x2="28.2" y2="214.9"/>
<line class="st2" x1="31.7" y1="214.9" x2="28.2" y2="214.9"/>
<text transform="matrix(1 0 0 1 10.7686 218.4287)" class="st1 st3 st4">0.5</text>
<line class="st1" x1="31.7" y1="168.5" x2="28.2" y2="168.5"/>
<line class="st2" x1="31.7" y1="168.5" x2="28.2" y2="168.5"/>
<text transform="matrix(1 0 0 1 10.7686 172.0801)" class="st1 st3 st4">1.0</text>
<line class="st1" x1="31.7" y1="122.2" x2="28.2" y2="122.2"/>
<line class="st2" x1="31.7" y1="122.2" x2="28.2" y2="122.2"/>
<text transform="matrix(1 0 0 1 10.7686 125.7305)" class="st1 st3 st4">1.5</text>
<line class="st1" x1="31.7" y1="75.8" x2="28.2" y2="75.8"/>
<line class="st2" x1="31.7" y1="75.8" x2="28.2" y2="75.8"/>
<text transform="matrix(1 0 0 1 10.7686 79.3813)" class="st1 st3 st4">2.0</text>
<line class="st1" x1="31.7" y1="29.5" x2="28.2" y2="29.5"/>
<line class="st2" x1="31.7" y1="29.5" x2="28.2" y2="29.5"/>
<text transform="matrix(1 0 0 1 10.7686 33.0322)" class="st1 st3 st4">2.5</text>
<g>
	<polygon class="st5" points="49.4,261 49.4,261.2 52.2,261.2 55,261.2 57.7,261.2 60.5,261.2 63.3,261.2 66.1,261.2 68.9,261.2 
		71.7,261.2 74.5,261.2 77.3,261.2 80.1,261.2 82.8,261.2 85.6,261.2 88.4,261.2 91.2,261.2 94,261.2 96.8,261.2 99.6,261.2 
		102.4,261.2 105.1,261.2 107.9,261.2 110.7,261.2 113.5,261.2 116.3,261.2 119.1,261.2 121.9,261.2 124.7,261.2 127.5,261.2 
		130.2,261.2 133,261.2 135.8,261.2 138.6,261.2 141.4,261.2 144.2,261.2 147,261.2 149.8,261.2 152.5,261.2 155.3,261.2 
		158.1,261.2 160.9,261.2 163.7,261.2 166.5,261.2 169.3,261.2 172.1,261.2 174.9,261.2 177.6,261.2 180.4,261.2 183.2,261.2 
		186,261.2 188.8,261.2 191.6,261.2 194.4,261.2 197.2,261.2 199.9,261.2 202.7,261.2 205.5,261.2 208.3,261.2 211.1,261.2 
		213.9,261.2 216.7,261.2 219.5,261.2 222.3,261.2 225,261.2 227.8,261.2 230.6,261.2 233.4,261.2 236.2,261.2 239,261.2 
		241.8,261.2 244.6,261.2 247.3,261.2 250.1,261.2 252.9,261.2 255.7,261.2 258.5,261.2 261.3,261.2 264.1,261.2 266.9,261.2 
		269.7,261.2 272.4,261.2 275.2,261.2 278,261.2 280.8,261.2 283.6,261.2 286.4,261.2 289.2,261.2 292,261.2 294.8,261.2 
		297.5,261.2 300.3,261.2 303.1,261.2 305.9,261.2 308.7,261.2 311.5,261.2 314.3,261.2 317.1,261.2 319.8,261.2 322.6,261.2 
		325.4,261.2 328.2,261.2 331,261.2 333.8,261.2 336.6,261.2 339.4,261.2 342.2,261.2 344.9,261.2 347.7,261.2 350.5,261.2 
		353.3,261.2 356.1,261.2 358.9,261.2 361.7,261.2 364.5,261.2 367.2,261.2 370,261.2 372.8,261.2 375.6,261.2 378.4,261.2 
		381.2,261.2 384,261.2 386.8,261.2 389.6,261.2 392.3,261.2 395.1,261.2 397.9,261.2 400.7,261.2 403.5,261.2 403.5,261 400.7,261 
		397.9,261 395.1,260.9 392.3,260.8 389.6,260.6 386.8,260.5 384,260.2 381.2,259.9 378.4,259.5 375.6,259 372.8,258.4 370,257.7 
		367.2,256.9 364.5,255.9 361.7,254.8 358.9,253.4 356.1,252 353.3,250.3 350.5,248.4 347.7,246.3 344.9,244.1 342.2,241.6 
		339.4,238.9 336.6,236.1 333.8,233 331,229.8 328.2,226.4 325.4,222.8 322.6,219.1 319.8,215.3 317.1,211.3 314.3,207.3 
		311.5,203.2 308.7,199.1 305.9,195 303.1,190.8 300.3,186.7 297.5,182.6 294.8,178.6 292,174.6 289.2,170.6 286.4,166.8 
		283.6,163.1 280.8,159.4 278,155.9 275.2,152.4 272.4,149.1 269.7,145.9 266.9,142.9 264.1,140 261.3,137.2 258.5,134.6 
		255.7,132.1 252.9,129.7 250.1,127.4 247.3,125.1 244.6,122.9 241.8,120.8 239,118.7 236.2,116.6 233.4,114.5 230.6,112.5 
		227.8,110.6 225,108.7 222.3,107 219.5,105.6 216.7,104.4 213.9,103.5 211.1,103 208.3,103 205.5,103.6 202.7,104.6 199.9,106.2 
		197.2,108.4 194.4,111.2 191.6,114.5 188.8,118.2 186,122.4 183.2,126.9 180.4,131.7 177.6,136.6 174.9,141.6 172.1,146.6 
		169.3,151.6 166.5,156.3 163.7,160.9 160.9,165.2 158.1,169.2 155.3,172.9 152.5,176.5 149.8,179.8 147,182.9 144.2,186 141.4,189 
		138.6,192 135.8,195.1 133,198.4 130.2,201.7 127.5,205.3 124.7,208.9 121.9,212.7 119.1,216.7 116.3,220.6 113.5,224.6 
		110.7,228.5 107.9,232.3 105.1,235.9 102.4,239.3 99.6,242.5 96.8,245.4 94,248 91.2,250.3 88.4,252.3 85.6,254 82.8,255.5 
		80.1,256.7 77.3,257.7 74.5,258.5 71.7,259.2 68.9,259.7 66.1,260.1 63.3,260.4 60.5,260.6 57.7,260.8 55,260.9 52.2,261 	"/>
	<polygon class="st6" points="49.4,261 49.4,261.2 52.2,261.2 55,261.2 57.7,261.2 60.5,261.2 63.3,261.2 66.1,261.2 68.9,261.2 
		71.7,261.2 74.5,261.2 77.3,261.2 80.1,261.2 82.8,261.2 85.6,261.2 88.4,261.2 91.2,261.2 94,261.2 96.8,261.2 99.6,261.2 
		102.4,261.2 105.1,261.2 107.9,261.2 110.7,261.2 113.5,261.2 116.3,261.2 119.1,261.2 121.9,261.2 124.7,261.2 127.5,261.2 
		130.2,261.2 133,261.2 135.8,261.2 138.6,261.2 141.4,261.2 144.2,261.2 147,261.2 149.8,261.2 152.5,261.2 155.3,261.2 
		158.1,261.2 160.9,261.2 163.7,261.2 166.5,261.2 169.3,261.2 172.1,261.2 174.9,261.2 177.6,261.2 180.4,261.2 183.2,261.2 
		186,261.2 188.8,261.2 191.6,261.2 194.4,261.2 197.2,261.2 199.9,261.2 202.7,261.2 205.5,261.2 208.3,261.2 211.1,261.2 
		213.9,261.2 216.7,261.2 219.5,261.2 222.3,261.2 225,261.2 227.8,261.2 230.6,261.2 233.4,261.2 236.2,261.2 239,261.2 
		241.8,261.2 244.6,261.2 247.3,261.2 250.1,261.2 252.9,261.2 255.7,261.2 258.5,261.2 261.3,261.2 264.1,261.2 266.9,261.2 
		269.7,261.2 272.4,261.2 275.2,261.2 278,261.2 280.8,261.2 283.6,261.2 286.4,261.2 289.2,261.2 292,261.2 294.8,261.2 
		297.5,261.2 300.3,261.2 303.1,261.2 305.9,261.2 308.7,261.2 311.5,261.2 314.3,261.2 317.1,261.2 319.8,261.2 322.6,261.2 
		325.4,261.2 328.2,261.2 331,261.2 333.8,261.2 336.6,261.2 339.4,261.2 342.2,261.2 344.9,261.2 347.7,261.2 350.5,261.2 
		353.3,261.2 356.1,261.2 358.9,261.2 361.7,261.2 364.5,261.2 367.2,261.2 370,261.2 372.8,261.2 375.6,261.2 378.4,261.2 
		381.2,261.2 384,261.2 386.8,261.2 389.6,261.2 392.3,261.2 395.1,261.2 397.9,261.2 400.7,261.2 403.5,261.2 403.5,261 400.7,261 
		397.9,261 395.1,260.9 392.3,260.8 389.6,260.6 386.8,260.5 384,260.2 381.2,259.9 378.4,259.5 375.6,259 372.8,258.4 370,257.7 
		367.2,256.9 364.5,255.9 361.7,254.8 358.9,253.4 356.1,252 353.3,250.3 350.5,248.4 347.7,246.3 344.9,244.1 342.2,241.6 
		339.4,238.9 336.6,236.1 333.8,233 331,229.8 328.2,226.4 325.4,222.8 322.6,219.1 319.8,215.3 317.1,211.3 314.3,207.3 
		311.5,203.2 308.7,199.1 305.9,195 303.1,190.8 300.3,186.7 297.5,182.6 294.8,178.6 292,174.6 289.2,170.6 286.4,166.8 
		283.6,163.1 280.8,159.4 278,155.9 275.2,152.4 272.4,149.1 269.7,145.9 266.9,142.9 264.1,140 261.3,137.2 258.5,134.6 
		255.7,132.1 252.9,129.7 250.1,127.4 247.3,125.1 244.6,122.9 241.8,120.8 239,118.7 236.2,116.6 233.4,114.5 230.6,112.5 
		227.8,110.6 225,108.7 222.3,107 219.5,105.6 216.7,104.4 213.9,103.5 211.1,103 208.3,103 205.5,103.6 202.7,104.6 199.9,106.2 
		197.2,108.4 194.4,111.2 191.6,114.5 188.8,118.2 186,122.4 183.2,126.9 180.4,131.7 177.6,136.6 174.9,141.6 172.1,146.6 
		169.3,151.6 166.5,156.3 163.7,160.9 160.9,165.2 158.1,169.2 155.3,172.9 152.5,176.5 149.8,179.8 147,182.9 144.2,186 141.4,189 
		138.6,192 135.8,195.1 133,198.4 130.2,201.7 127.5,205.3 124.7,208.9 121.9,212.7 119.1,216.7 116.3,220.6 113.5,224.6 
		110.7,228.5 107.9,232.3 105.1,235.9 102.4,239.3 99.6,242.5 96.8,245.4 94,248 91.2,250.3 88.4,252.3 85.6,254 82.8,255.5 
		80.1,256.7 77.3,257.7 74.5,258.5 71.7,259.2 68.9,259.7 66.1,260.1 63.3,260.4 60.5,260.6 57.7,260.8 55,260.9 52.2,261 	"/>
</g>
<rect x="31.7" y="10.8" class="st7" width="389.5" height="250.4"/>
<g>
	<polygon class="st8" points="125.1,260.9 125.1,261.2 127.1,261.2 129.1,261.2 131.1,261.2 133.1,261.2 135.1,261.2 137.1,261.2 
		139.1,261.2 141,261.2 143,261.2 145,261.2 147,261.2 149,261.2 151,261.2 153,261.2 155,261.2 157,261.2 159,261.2 161,261.2 
		162.9,261.2 164.9,261.2 166.9,261.2 168.9,261.2 170.9,261.2 172.9,261.2 174.9,261.2 176.9,261.2 178.9,261.2 180.9,261.2 
		182.8,261.2 184.8,261.2 186.8,261.2 188.8,261.2 190.8,261.2 192.8,261.2 194.8,261.2 196.8,261.2 198.8,261.2 200.8,261.2 
		202.7,261.2 204.7,261.2 206.7,261.2 208.7,261.2 210.7,261.2 212.7,261.2 214.7,261.2 216.7,261.2 218.7,261.2 220.7,261.2 
		222.6,261.2 224.6,261.2 226.6,261.2 228.6,261.2 230.6,261.2 232.6,261.2 234.6,261.2 236.6,261.2 238.6,261.2 240.6,261.2 
		242.6,261.2 244.5,261.2 246.5,261.2 248.5,261.2 250.5,261.2 252.5,261.2 254.5,261.2 256.5,261.2 258.5,261.2 260.5,261.2 
		262.5,261.2 264.4,261.2 266.4,261.2 268.4,261.2 270.4,261.2 272.4,261.2 274.4,261.2 276.4,261.2 278.4,261.2 280.4,261.2 
		282.4,261.2 284.3,261.2 286.3,261.2 288.3,261.2 290.3,261.2 292.3,261.2 294.3,261.2 296.3,261.2 298.3,261.2 300.3,261.2 
		302.3,261.2 304.3,261.2 306.2,261.2 308.2,261.2 310.2,261.2 312.2,261.2 314.2,261.2 316.2,261.2 318.2,261.2 320.2,261.2 
		322.2,261.2 324.2,261.2 326.1,261.2 328.1,261.2 330.1,261.2 332.1,261.2 334.1,261.2 336.1,261.2 338.1,261.2 340.1,261.2 
		342.1,261.2 344.1,261.2 346,261.2 348,261.2 350,261.2 352,261.2 354,261.2 356,261.2 358,261.2 360,261.2 362,261.2 364,261.2 
		366,261.2 367.9,261.2 369.9,261.2 371.9,261.2 373.9,261.2 375.9,261.2 377.9,261.2 377.9,260.9 375.9,260.9 373.9,260.8 
		371.9,260.6 369.9,260.4 367.9,260.1 366,259.7 364,259.2 362,258.5 360,257.6 358,256.5 356,255.1 354,253.3 352,251.2 350,248.7 
		348,245.8 346,242.3 344.1,238.3 342.1,233.7 340.1,228.6 338.1,222.8 336.1,216.4 334.1,209.5 332.1,201.9 330.1,193.7 
		328.1,184.9 326.1,175.7 324.2,165.9 322.2,155.8 320.2,145.3 318.2,134.6 316.2,123.7 314.2,112.9 312.2,102.1 310.2,91.6 
		308.2,81.5 306.2,71.9 304.3,62.9 302.3,54.8 300.3,47.5 298.3,41.1 296.3,35.7 294.3,31.3 292.3,27.9 290.3,25.4 288.3,23.7 
		286.3,22.9 284.3,22.7 282.4,23.2 280.4,24.2 278.4,25.8 276.4,27.7 274.4,29.9 272.4,32.4 270.4,35.2 268.4,38.2 266.4,41.4 
		264.4,44.7 262.5,48.2 260.5,51.9 258.5,55.6 256.5,59.5 254.5,63.5 252.5,67.7 250.5,72 248.5,76.5 246.5,81.2 244.5,86.1 
		242.6,91.4 240.6,96.9 238.6,102.7 236.6,108.8 234.6,115.1 232.6,121.6 230.6,128.3 228.6,135 226.6,141.7 224.6,148.2 
		222.6,154.5 220.7,160.5 218.7,166.1 216.7,171.3 214.7,176 212.7,180.3 210.7,184.1 208.7,187.5 206.7,190.6 204.7,193.4 
		202.7,195.9 200.8,198.3 198.8,200.5 196.8,202.6 194.8,204.7 192.8,206.8 190.8,208.8 188.8,210.9 186.8,213 184.8,215.1 
		182.8,217.4 180.9,219.6 178.9,221.9 176.9,224.3 174.9,226.8 172.9,229.2 170.9,231.8 168.9,234.3 166.9,236.8 164.9,239.3 
		162.9,241.8 161,244.1 159,246.3 157,248.4 155,250.4 153,252.1 151,253.7 149,255 147,256.2 145,257.3 143,258.1 141,258.8 
		139.1,259.4 137.1,259.8 135.1,260.2 133.1,260.4 131.1,260.6 129.1,260.8 127.1,260.9 	"/>
	<polygon class="st6" points="125.1,260.9 125.1,261.2 127.1,261.2 129.1,261.2 131.1,261.2 133.1,261.2 135.1,261.2 137.1,261.2 
		139.1,261.2 141,261.2 143,261.2 145,261.2 147,261.2 149,261.2 151,261.2 153,261.2 155,261.2 157,261.2 159,261.2 161,261.2 
		162.9,261.2 164.9,261.2 166.9,261.2 168.9,261.2 170.9,261.2 172.9,261.2 174.9,261.2 176.9,261.2 178.9,261.2 180.9,261.2 
		182.8,261.2 184.8,261.2 186.8,261.2 188.8,261.2 190.8,261.2 192.8,261.2 194.8,261.2 196.8,261.2 198.8,261.2 200.8,261.2 
		202.7,261.2 204.7,261.2 206.7,261.2 208.7,261.2 210.7,261.2 212.7,261.2 214.7,261.2 216.7,261.2 218.7,261.2 220.7,261.2 
		222.6,261.2 224.6,261.2 226.6,261.2 228.6,261.2 230.6,261.2 232.6,261.2 234.6,261.2 236.6,261.2 238.6,261.2 240.6,261.2 
		242.6,261.2 244.5,261.2 246.5,261.2 248.5,261.2 250.5,261.2 252.5,261.2 254.5,261.2 256.5,261.2 258.5,261.2 260.5,261.2 
		262.5,261.2 264.4,261.2 266.4,261.2 268.4,261.2 270.4,261.2 272.4,261.2 274.4,261.2 276.4,261.2 278.4,261.2 280.4,261.2 
		282.4,261.2 284.3,261.2 286.3,261.2 288.3,261.2 290.3,261.2 292.3,261.2 294.3,261.2 296.3,261.2 298.3,261.2 300.3,261.2 
		302.3,261.2 304.3,261.2 306.2,261.2 308.2,261.2 310.2,261.2 312.2,261.2 314.2,261.2 316.2,261.2 318.2,261.2 320.2,261.2 
		322.2,261.2 324.2,261.2 326.1,261.2 328.1,261.2 330.1,261.2 332.1,261.2 334.1,261.2 336.1,261.2 338.1,261.2 340.1,261.2 
		342.1,261.2 344.1,261.2 346,261.2 348,261.2 350,261.2 352,261.2 354,261.2 356,261.2 358,261.2 360,261.2 362,261.2 364,261.2 
		366,261.2 367.9,261.2 369.9,261.2 371.9,261.2 373.9,261.2 375.9,261.2 377.9,261.2 377.9,260.9 375.9,260.9 373.9,260.8 
		371.9,260.6 369.9,260.4 367.9,260.1 366,259.7 364,259.2 362,258.5 360,257.6 358,256.5 356,255.1 354,253.3 352,251.2 350,248.7 
		348,245.8 346,242.3 344.1,238.3 342.1,233.7 340.1,228.6 338.1,222.8 336.1,216.4 334.1,209.5 332.1,201.9 330.1,193.7 
		328.1,184.9 326.1,175.7 324.2,165.9 322.2,155.8 320.2,145.3 318.2,134.6 316.2,123.7 314.2,112.9 312.2,102.1 310.2,91.6 
		308.2,81.5 306.2,71.9 304.3,62.9 302.3,54.8 300.3,47.5 298.3,41.1 296.3,35.7 294.3,31.3 292.3,27.9 290.3,25.4 288.3,23.7 
		286.3,22.9 284.3,22.7 282.4,23.2 280.4,24.2 278.4,25.8 276.4,27.7 274.4,29.9 272.4,32.4 270.4,35.2 268.4,38.2 266.4,41.4 
		264.4,44.7 262.5,48.2 260.5,51.9 258.5,55.6 256.5,59.5 254.5,63.5 252.5,67.7 250.5,72 248.5,76.5 246.5,81.2 244.5,86.1 
		242.6,91.4 240.6,96.9 238.6,102.7 236.6,108.8 234.6,115.1 232.6,121.6 230.6,128.3 228.6,135 226.6,141.7 224.6,148.2 
		222.6,154.5 220.7,160.5 218.7,166.1 216.7,171.3 214.7,176 212.7,180.3 210.7,184.1 208.7,187.5 206.7,190.6 204.7,193.4 
		202.7,195.9 200.8,198.3 198.8,200.5 196.8,202.6 194.8,204.7 192.8,206.8 190.8,208.8 188.8,210.9 186.8,213 184.8,215.1 
		182.8,217.4 180.9,219.6 178.9,221.9 176.9,224.3 174.9,226.8 172.9,229.2 170.9,231.8 168.9,234.3 166.9,236.8 164.9,239.3 
		162.9,241.8 161,244.1 159,246.3 157,248.4 155,250.4 153,252.1 151,253.7 149,255 147,256.2 145,257.3 143,258.1 141,258.8 
		139.1,259.4 137.1,259.8 135.1,260.2 133.1,260.4 131.1,260.6 129.1,260.8 127.1,260.9 	"/>
</g>
<rect x="31.7" y="10.8" class="st7" width="389.5" height="250.4"/>
<polyline class="st9" points="49.4,261 57.7,260.8 63.3,260.4 68.9,259.7 71.7,259.2 74.5,258.5 77.3,257.7 80.1,256.7 82.8,255.5 
	85.6,254 88.4,252.3 91.2,250.3 94,248 96.8,245.4 99.6,242.5 102.4,239.3 105.1,235.9 110.7,228.5 124.7,208.9 130.2,201.7 
	135.8,195.1 141.4,189 147,182.9 152.5,176.5 155.3,172.9 158.1,169.2 160.9,165.2 163.7,160.9 166.5,156.3 172.1,146.6 
	180.4,131.7 183.2,126.9 186,122.4 188.8,118.2 191.6,114.5 194.4,111.2 197.2,108.4 199.9,106.2 202.7,104.6 205.5,103.6 
	208.3,103 211.1,103 213.9,103.5 216.7,104.4 219.5,105.6 222.3,107 225,108.7 230.6,112.5 239,118.7 247.3,125.1 252.9,129.7 
	258.5,134.6 264.1,140 269.7,145.9 275.2,152.4 280.8,159.4 286.4,166.8 292,174.6 300.3,186.7 317.1,211.3 322.6,219.1 
	328.2,226.4 333.8,233 336.6,236.1 339.4,238.9 342.2,241.6 344.9,244.1 347.7,246.3 350.5,248.4 353.3,250.3 356.1,252 
	358.9,253.4 361.7,254.8 364.5,255.9 367.2,256.9 370,257.7 372.8,258.4 378.4,259.5 384,260.2 389.6,260.6 395.1,260.9 403.5,261 
	"/>
<rect x="31.7" y="10.8" class="st7" width="389.5" height="250.4"/>
<polyline class="st10" points="125.1,260.9 129.1,260.8 133.1,260.4 137.1,259.8 139.1,259.4 141,258.8 143,258.1 145,257.3 
	147,256.2 149,255 151,253.7 153,252.1 155,250.4 157,248.4 161,244.1 164.9,239.3 178.9,221.9 182.8,217.4 188.8,210.9 
	200.8,198.3 202.7,195.9 204.7,193.4 206.7,190.6 208.7,187.5 210.7,184.1 212.7,180.3 214.7,176 216.7,171.3 218.7,166.1 
	220.7,160.5 224.6,148.2 230.6,128.3 234.6,115.1 238.6,102.7 242.6,91.4 246.5,81.2 250.5,72 254.5,63.5 258.5,55.6 262.5,48.2 
	266.4,41.4 270.4,35.2 272.4,32.4 274.4,29.9 276.4,27.7 278.4,25.8 280.4,24.2 282.4,23.2 284.3,22.7 286.3,22.9 288.3,23.7 
	290.3,25.4 292.3,27.9 294.3,31.3 296.3,35.7 298.3,41.1 300.3,47.5 302.3,54.8 304.3,62.9 306.2,71.9 310.2,91.6 314.2,112.9 
	322.2,155.8 326.1,175.7 330.1,193.7 332.1,201.9 334.1,209.5 336.1,216.4 338.1,222.8 340.1,228.6 342.1,233.7 344.1,238.3 
	346,242.3 348,245.8 350,248.7 352,251.2 354,253.3 356,255.1 358,256.5 360,257.6 362,258.5 364,259.2 366,259.7 369.9,260.4 
	373.9,260.8 377.9,260.9 "/>
<rect x="31.7" y="10.8" class="st7" width="389.5" height="250.4"/>
<g>
	<path class="st11" d="M347.7,47.2h66.5c1.3,0,2-0.7,2-2V17.8c0-1.3-0.7-2-2-2h-66.5c-1.3,0-2,0.7-2,2v27.4
		C345.7,46.5,346.4,47.2,347.7,47.2z"/>
	<path class="st12" d="M347.7,47.2h66.5c1.3,0,2-0.7,2-2V17.8c0-1.3-0.7-2-2-2h-66.5c-1.3,0-2,0.7-2,2v27.4
		C345.7,46.5,346.4,47.2,347.7,47.2z"/>
</g>
<line class="st9" x1="349.7" y1="23.5" x2="369.7" y2="23.5"/>
<text transform="matrix(1 0 0 1 377.7314 26.9561)" class="st1 st3 st4">valence</text>
<line class="st10" x1="349.7" y1="37.6" x2="369.7" y2="37.6"/>
<text transform="matrix(1 0 0 1 377.7314 41.0967)" class="st1 st3 st4">energy</text>
<rect class="st7" width="432" height="288"/>
<rect x="28.2" y="27" class="st13" width="6.5" height="248.4"/>
<rect x="39.3" y="261.2" class="st13" width="369.3" height="3.6"/>
</svg>
