<?xml version="1.0" encoding="utf-8"?>
<!-- Generator: Adobe Illustrator 22.0.0, SVG Export Plug-In . SVG Version: 6.00 Build 0)  -->
<svg version="1.1" id="Layer_1" xmlns="http://www.w3.org/2000/svg" xmlns:xlink="http://www.w3.org/1999/xlink" x="0px" y="0px"
	 viewBox="0 0 432 288" style="enable-background:new 0 0 432 288;" xml:space="preserve">
<style type="text/css">
	.st0{fill:#FFFFFF;}
	.st1{fill:#262626;}
	.st2{fill:none;stroke:#262626;stroke-width:0.8;stroke-linejoin:round;stroke-miterlimit:10;}
	.st3{font-family:'ArialMT';}
	.st4{font-size:10px;}
	.st5{fill:url(#SVGID_1_);}
	.st6{fill:none;stroke:#FFFFFF;stroke-miterlimit:10;}
	.st7{fill:none;}
	.st8{fill:url(#SVGID_2_);}
	.st9{fill:url(#SVGID_3_);}
	.st10{fill:url(#SVGID_4_);}
	.st11{fill:url(#SVGID_5_);}
	.st12{fill:url(#SVGID_6_);}
	.st13{fill:url(#SVGID_7_);}
	.st14{fill:url(#SVGID_8_);}
	.st15{fill:url(#SVGID_9_);}
	.st16{fill:url(#SVGID_10_);}
</style>
<path class="st0" d="M0,0v288h432V0H0z M21,146.7c-0.5,6.4-10.5,6.4-10,0c0.6-8,0.7-16,0.7-24c0-6.4,10-6.4,10,0
	C21.7,130.7,21.6,138.7,21,146.7z"/>
<line class="st1" x1="221.2" y1="261.2" x2="221.2" y2="264.7"/>
<line class="st2" x1="221.2" y1="261.2" x2="221.2" y2="264.7"/>
<text transform="matrix(1 0 0 1 214.2217 275.3564)" class="st1 st3 st4">0.0</text>
<line class="st1" x1="262.1" y1="261.2" x2="262.1" y2="264.7"/>
<line class="st2" x1="262.1" y1="261.2" x2="262.1" y2="264.7"/>
<text transform="matrix(1 0 0 1 255.1455 275.3564)" class="st1 st3 st4">0.2</text>
<line class="st1" x1="303" y1="261.2" x2="303" y2="264.7"/>
<line class="st2" x1="303" y1="261.2" x2="303" y2="264.7"/>
<text transform="matrix(1 0 0 1 296.0693 275.3564)" class="st1 st3 st4">0.4</text>
<line class="st1" x1="343.9" y1="261.2" x2="343.9" y2="264.7"/>
<line class="st2" x1="343.9" y1="261.2" x2="343.9" y2="264.7"/>
<text transform="matrix(1 0 0 1 336.9932 275.3564)" class="st1 st3 st4">0.6</text>
<line class="st1" x1="384.9" y1="261.2" x2="384.9" y2="264.7"/>
<line class="st2" x1="384.9" y1="261.2" x2="384.9" y2="264.7"/>
<text transform="matrix(1 0 0 1 377.917 275.3564)" class="st1 st3 st4">0.8</text>
<line class="st1" x1="221.2" y1="244.3" x2="217.7" y2="244.3"/>
<line class="st2" x1="221.2" y1="244.3" x2="217.7" y2="244.3"/>
<text transform="matrix(1 0 0 1 150.2686 247.9238)" class="st1 st3 st4">Nice For What</text>
<line class="st1" x1="221.2" y1="220.3" x2="217.7" y2="220.3"/>
<line class="st2" x1="221.2" y1="220.3" x2="217.7" y2="220.3"/>
<text transform="matrix(1 0 0 1 171.3779 223.8477)" class="st1 st3 st4">Me Niego</text>
<line class="st1" x1="221.2" y1="196.2" x2="217.7" y2="196.2"/>
<line class="st2" x1="221.2" y1="196.2" x2="217.7" y2="196.2"/>
<text transform="matrix(1 0 0 1 184.0186 199.833)" class="st1 st3 st4">1, 2, 3 </text>
<line class="st1" x1="221.2" y1="172.1" x2="217.7" y2="172.1"/>
<line class="st2" x1="221.2" y1="172.1" x2="217.7" y2="172.1"/>
<text transform="matrix(1 0 0 1 166.3779 175.7559)" class="st1 st3 st4">Sin Pijama</text>
<line class="st1" x1="221.2" y1="148" x2="217.7" y2="148"/>
<line class="st2" x1="221.2" y1="148" x2="217.7" y2="148"/>
<text transform="matrix(1 0 0 1 192.5029 151.6162)" class="st1 st3 st4">Dura</text>
<line class="st1" x1="221.2" y1="124" x2="217.7" y2="124"/>
<line class="st2" x1="221.2" y1="124" x2="217.7" y2="124"/>
<text transform="matrix(1 0 0 1 128.6279 127.6021)" class="st1 st3 st4">Dejala Que Vuelva </text>
<line class="st1" x1="221.2" y1="99.9" x2="217.7" y2="99.9"/>
<line class="st2" x1="221.2" y1="99.9" x2="217.7" y2="99.9"/>
<text transform="matrix(1 0 0 1 177.5186 103.4629)" class="st1 st3 st4">Criminal</text>
<line class="st1" x1="221.2" y1="75.8" x2="217.7" y2="75.8"/>
<line class="st2" x1="221.2" y1="75.8" x2="217.7" y2="75.8"/>
<text transform="matrix(1 0 0 1 191.9404 79.3857)" class="st1 st3 st4">Bella</text>
<line class="st1" x1="221.2" y1="51.7" x2="217.7" y2="51.7"/>
<line class="st2" x1="221.2" y1="51.7" x2="217.7" y2="51.7"/>
<text transform="matrix(1 0 0 1 77.4561 55.3716)" class="st1 st3 st4">Finesse (Remix) [feat. Cardi B]</text>
<line class="st1" x1="221.2" y1="27.7" x2="217.7" y2="27.7"/>
<line class="st2" x1="221.2" y1="27.7" x2="217.7" y2="27.7"/>
<text transform="matrix(1 0 0 1 153.5498 31.2944)" class="st1 st3 st4">Shape of You</text>
<text transform="matrix(-6.123234e-17 -1 1 -6.123234e-17 18.0344 148.5078)" class="st1 st3 st4">name</text>
<linearGradient id="SVGID_1_" gradientUnits="userSpaceOnUse" x1="221.175" y1="244.3462" x2="376.0714" y2="244.3462">
	<stop  offset="0" style="stop-color:#FFFFFF"/>
	<stop  offset="1" style="stop-color:#000000"/>
</linearGradient>
<rect x="221.2" y="233.5" class="st5" width="154.9" height="21.7"/>
<rect x="221.2" y="233.5" class="st6" width="154.9" height="21.7"/>
<rect x="221.2" y="10.8" class="st7" width="200" height="250.4"/>
<linearGradient id="SVGID_2_" gradientUnits="userSpaceOnUse" x1="221.175" y1="220.2692" x2="378.3221" y2="220.2692">
	<stop  offset="0" style="stop-color:#FFFFFF"/>
	<stop  offset="1" style="stop-color:#000000"/>
</linearGradient>
<rect x="221.2" y="209.4" class="st8" width="157.1" height="21.7"/>
<rect x="221.2" y="209.4" class="st6" width="157.1" height="21.7"/>
<rect x="221.2" y="10.8" class="st7" width="200" height="250.4"/>
<linearGradient id="SVGID_3_" gradientUnits="userSpaceOnUse" x1="221.175" y1="196.1923" x2="383.6422" y2="196.1923">
	<stop  offset="0" style="stop-color:#FFFFFF"/>
	<stop  offset="1" style="stop-color:#000000"/>
</linearGradient>
<rect x="221.2" y="185.4" class="st9" width="162.5" height="21.7"/>
<rect x="221.2" y="185.4" class="st6" width="162.5" height="21.7"/>
<rect x="221.2" y="10.8" class="st7" width="200" height="250.4"/>
<linearGradient id="SVGID_4_" gradientUnits="userSpaceOnUse" x1="221.175" y1="172.1154" x2="388.9623" y2="172.1154">
	<stop  offset="0" style="stop-color:#FFFFFF"/>
	<stop  offset="1" style="stop-color:#000000"/>
</linearGradient>
<rect x="221.2" y="161.3" class="st10" width="167.8" height="21.7"/>
<rect x="221.2" y="161.3" class="st6" width="167.8" height="21.7"/>
<rect x="221.2" y="10.8" class="st7" width="200" height="250.4"/>
<linearGradient id="SVGID_5_" gradientUnits="userSpaceOnUse" x1="221.175" y1="148.0385" x2="390.5993" y2="148.0385">
	<stop  offset="0" style="stop-color:#FFFFFF"/>
	<stop  offset="1" style="stop-color:#000000"/>
</linearGradient>
<rect x="221.2" y="137.2" class="st11" width="169.4" height="21.7"/>
<rect x="221.2" y="137.2" class="st6" width="169.4" height="21.7"/>
<rect x="221.2" y="10.8" class="st7" width="200" height="250.4"/>
<linearGradient id="SVGID_6_" gradientUnits="userSpaceOnUse" x1="221.175" y1="123.9615" x2="392.8501" y2="123.9615">
	<stop  offset="0" style="stop-color:#FFFFFF"/>
	<stop  offset="1" style="stop-color:#000000"/>
</linearGradient>
<rect x="221.2" y="113.1" class="st12" width="171.7" height="21.7"/>
<rect x="221.2" y="113.1" class="st6" width="171.7" height="21.7"/>
<rect x="221.2" y="10.8" class="st7" width="200" height="250.4"/>
<linearGradient id="SVGID_7_" gradientUnits="userSpaceOnUse" x1="221.175" y1="99.8846" x2="392.8501" y2="99.8846">
	<stop  offset="0" style="stop-color:#FFFFFF"/>
	<stop  offset="1" style="stop-color:#000000"/>
</linearGradient>
<rect x="221.2" y="89.1" class="st13" width="171.7" height="21.7"/>
<rect x="221.2" y="89.1" class="st6" width="171.7" height="21.7"/>
<rect x="221.2" y="10.8" class="st7" width="200" height="250.4"/>
<linearGradient id="SVGID_8_" gradientUnits="userSpaceOnUse" x1="221.175" y1="75.8077" x2="393.8732" y2="75.8077">
	<stop  offset="0" style="stop-color:#FFFFFF"/>
	<stop  offset="1" style="stop-color:#000000"/>
</linearGradient>
<rect x="221.2" y="65" class="st14" width="172.7" height="21.7"/>
<rect x="221.2" y="65" class="st6" width="172.7" height="21.7"/>
<rect x="221.2" y="10.8" class="st7" width="200" height="250.4"/>
<linearGradient id="SVGID_9_" gradientUnits="userSpaceOnUse" x1="221.175" y1="51.7308" x2="410.6519" y2="51.7308">
	<stop  offset="0" style="stop-color:#FFFFFF"/>
	<stop  offset="1" style="stop-color:#000000"/>
</linearGradient>
<rect x="221.2" y="40.9" class="st15" width="189.5" height="21.7"/>
<rect x="221.2" y="40.9" class="st6" width="189.5" height="21.7"/>
<rect x="221.2" y="10.8" class="st7" width="200" height="250.4"/>
<linearGradient id="SVGID_10_" gradientUnits="userSpaceOnUse" x1="221.175" y1="27.6539" x2="411.675" y2="27.6539">
	<stop  offset="0" style="stop-color:#FFFFFF"/>
	<stop  offset="1" style="stop-color:#000000"/>
</linearGradient>
<rect x="221.2" y="16.8" class="st16" width="190.5" height="21.7"/>
<rect x="221.2" y="16.8" class="st6" width="190.5" height="21.7"/>
<rect x="221.2" y="10.8" class="st7" width="200" height="250.4"/>
<rect x="8" y="124" class="st0" width="13.7" height="27.7"/>
<rect x="216" y="22.7" class="st0" width="5.2" height="232.5"/>
</svg>
